<?xml version="1.0" encoding="utf-8"?>
<!-- Generator: Adobe Illustrator 25.4.0, SVG Export Plug-In . SVG Version: 6.00 Build 0)  -->
<svg version="1.1" id="Layer_1" xmlns="http://www.w3.org/2000/svg" xmlns:xlink="http://www.w3.org/1999/xlink" x="0px" y="0px"
	 viewBox="0 0 1920 1080" style="enable-background:new 0 0 1920 1080;" xml:space="preserve">
<style type="text/css">
	.st0{fill:#99F4F1;}
	.st1{opacity:0.46;}
	.st2{fill:#B0C3C2;}
	.st3{opacity:0.29;fill:#B0C3C2;enable-background:new    ;}
	.st4{fill:#8CAAA7;}
	.st5{fill:#558280;}
	.st6{opacity:0.29;fill:#558280;enable-background:new    ;}
	.st7{opacity:0.52;}
	.st8{fill:#FFFFFF;}
	.st9{opacity:0.5;fill:#FFFFFF;enable-background:new    ;}
	.st10{opacity:0.33;fill:#FFFFFF;enable-background:new    ;}
	.st11{opacity:0.4;fill:#FFFFFF;enable-background:new    ;}
	.st12{display:none;}
	.st13{display:inline;fill:#7D4333;}
	.st14{display:inline;fill:#BBC040;}
	.st15{fill:none;stroke:#5C1400;stroke-width:8;stroke-miterlimit:10;}
	.st16{fill:#666666;}
	.st17{fill:#BBC040;}
</style>
<rect class="st0" width="1920" height="1080"/>
<g class="st1">
	<g>
		<g>
			<g>
				<rect x="474.1" y="357" class="st2" width="97" height="386.1"/>
				<rect x="489.9" y="329.3" class="st2" width="65.3" height="162.3"/>
				<rect x="504.5" y="311.8" class="st2" width="36.2" height="90"/>
				<polygon class="st2" points="534.9,358 510.3,358 510.3,296.7 519.2,296.7 528,296.7 534.9,296.7 				"/>
				<g>
					<polygon class="st2" points="521,331.3 518.3,331.3 518.3,270 519.3,270 520.2,270 521,270 					"/>
					<polygon class="st2" points="526.9,310.1 524.2,310.1 524.2,248.8 525.2,248.8 526.1,248.8 526.9,248.8 					"/>
				</g>
				<rect x="471.5" y="356" class="st2" width="102.2" height="4.1"/>
				<rect x="487.6" y="327.4" class="st2" width="70.1" height="4"/>
				<rect x="501.8" y="310.1" class="st2" width="40.4" height="3"/>
				<rect x="495.9" y="335.9" class="st3" width="3" height="17"/>
				<rect x="504.4" y="335.9" class="st3" width="3" height="17"/>
				<rect x="512.8" y="335.9" class="st3" width="3" height="17"/>
				<rect x="521.2" y="335.9" class="st3" width="3" height="17"/>
				<rect x="529.6" y="335.9" class="st3" width="3" height="17"/>
				<rect x="538" y="335.9" class="st3" width="3" height="17"/>
				<rect x="546.4" y="335.9" class="st3" width="3" height="17"/>
				<rect x="482.6" y="372.4" class="st2" width="7.3" height="20.2"/>
				<rect x="497.1" y="372.4" class="st3" width="7.3" height="20.2"/>
				<rect x="511.7" y="372.4" class="st2" width="7.3" height="20.2"/>
				<rect x="526.2" y="372.4" class="st2" width="7.3" height="20.2"/>
				<rect x="540.7" y="372.4" class="st2" width="7.3" height="20.2"/>
				<rect x="555.3" y="372.4" class="st2" width="7.3" height="20.2"/>
				<rect x="482.6" y="403.9" class="st2" width="7.3" height="20.2"/>
				<rect x="497.1" y="403.9" class="st2" width="7.3" height="20.2"/>
				<rect x="511.7" y="403.9" class="st2" width="7.3" height="20.2"/>
				<rect x="526.2" y="403.9" class="st3" width="7.3" height="20.2"/>
				<rect x="540.7" y="403.9" class="st2" width="7.3" height="20.2"/>
				<rect x="555.3" y="403.9" class="st2" width="7.3" height="20.2"/>
				<rect x="482.6" y="435.3" class="st2" width="7.3" height="20.2"/>
				<rect x="497.1" y="435.3" class="st2" width="7.3" height="20.2"/>
				<rect x="511.7" y="435.3" class="st2" width="7.3" height="20.2"/>
				<rect x="526.2" y="435.3" class="st2" width="7.3" height="20.2"/>
				<rect x="540.7" y="435.3" class="st3" width="7.3" height="20.2"/>
				<rect x="555.3" y="435.3" class="st3" width="7.3" height="20.2"/>
				<rect x="482.6" y="466.8" class="st3" width="7.3" height="20.2"/>
				<rect x="497.1" y="466.8" class="st2" width="7.3" height="20.2"/>
				<rect x="511.7" y="466.8" class="st2" width="7.3" height="20.2"/>
				<rect x="526.2" y="466.8" class="st2" width="7.3" height="20.2"/>
				<rect x="540.7" y="466.8" class="st2" width="7.3" height="20.2"/>
				<rect x="555.3" y="466.8" class="st2" width="7.3" height="20.2"/>
				<rect x="482.6" y="498.2" class="st2" width="7.3" height="20.2"/>
				<rect x="497.1" y="498.2" class="st3" width="7.3" height="20.2"/>
				<rect x="511.7" y="498.2" class="st2" width="7.3" height="20.2"/>
				<rect x="526.2" y="498.2" class="st3" width="7.3" height="20.2"/>
				<rect x="540.7" y="498.2" class="st2" width="7.3" height="20.2"/>
				<rect x="555.3" y="498.2" class="st2" width="7.3" height="20.2"/>
				<rect x="482.6" y="529.6" class="st2" width="7.3" height="20.2"/>
				<rect x="497.1" y="529.6" class="st2" width="7.3" height="20.2"/>
				<rect x="511.7" y="529.6" class="st2" width="7.3" height="20.2"/>
				<rect x="526.2" y="529.6" class="st2" width="7.3" height="20.2"/>
				<rect x="540.7" y="529.6" class="st2" width="7.3" height="20.2"/>
				<rect x="555.3" y="529.6" class="st3" width="7.3" height="20.2"/>
				<rect x="482.6" y="561.1" class="st2" width="7.3" height="20.2"/>
				<rect x="497.1" y="561.1" class="st3" width="7.3" height="20.2"/>
				<rect x="511.7" y="561.1" class="st3" width="7.3" height="20.2"/>
				<rect x="526.2" y="561.1" class="st2" width="7.3" height="20.2"/>
				<rect x="540.7" y="561.1" class="st2" width="7.3" height="20.2"/>
				<rect x="555.3" y="561.1" class="st2" width="7.3" height="20.2"/>
				<rect x="482.6" y="592.5" class="st2" width="7.3" height="20.2"/>
				<rect x="497.1" y="592.5" class="st2" width="7.3" height="20.2"/>
				<rect x="511.7" y="592.5" class="st2" width="7.3" height="20.2"/>
				<rect x="526.2" y="592.5" class="st2" width="7.3" height="20.2"/>
				<rect x="540.7" y="592.5" class="st3" width="7.3" height="20.2"/>
				<rect x="555.3" y="592.5" class="st2" width="7.3" height="20.2"/>
				<rect x="482.6" y="624" class="st2" width="7.3" height="20.2"/>
				<rect x="497.1" y="624" class="st3" width="7.3" height="20.2"/>
				<rect x="511.7" y="624" class="st2" width="7.3" height="20.2"/>
				<rect x="526.2" y="624" class="st2" width="7.3" height="20.2"/>
				<rect x="540.7" y="624" class="st2" width="7.3" height="20.2"/>
				<rect x="555.3" y="624" class="st2" width="7.3" height="20.2"/>
				<rect x="482.6" y="655.4" class="st2" width="7.3" height="20.2"/>
				<rect x="497.1" y="655.4" class="st2" width="7.3" height="20.2"/>
				<rect x="511.7" y="655.4" class="st2" width="7.3" height="20.2"/>
				<rect x="526.2" y="655.4" class="st3" width="7.3" height="20.2"/>
				<rect x="540.7" y="655.4" class="st2" width="7.3" height="20.2"/>
				<rect x="555.3" y="655.4" class="st3" width="7.3" height="20.2"/>
				<rect x="482.6" y="686.9" class="st3" width="7.3" height="20.2"/>
				<rect x="497.1" y="686.9" class="st2" width="7.3" height="20.2"/>
				<rect x="511.7" y="686.9" class="st3" width="7.3" height="20.2"/>
				<rect x="526.2" y="686.9" class="st2" width="7.3" height="20.2"/>
				<rect x="540.7" y="686.9" class="st2" width="7.3" height="20.2"/>
				<rect x="555.3" y="686.9" class="st2" width="7.3" height="20.2"/>
			</g>
			<g>
				<rect x="192.3" y="371.7" class="st2" width="155.9" height="325.3"/>
				<rect x="187.9" y="366.1" class="st2" width="164.8" height="9.2"/>
				<rect x="197.6" y="354.4" class="st2" width="145.5" height="43.7"/>
				<rect x="208.7" y="336.5" class="st2" width="57.6" height="47.7"/>
				<polygon class="st2" points="242.1,349.9 208.7,349.9 208.7,324.8 232.6,324.8 				"/>
				<rect x="222.2" y="303.9" class="st2" width="3.2" height="56"/>
				<path class="st2" d="M226.7,301c0,1.6-1.3,2.9-2.9,2.9s-2.9-1.3-2.9-2.9s1.3-2.9,2.9-2.9S226.7,299.4,226.7,301z"/>
			</g>
			<polygon class="st2" points="1639.7,721.8 1469,721.8 1447.7,243.5 1639.7,283.4 			"/>
			<polygon class="st2" points="894.9,448.6 894.9,288.7 868.2,288.7 868.2,245.9 858.6,245.9 858.6,183.1 805.9,183.1 805.9,136.9 
				801.2,136.9 801.2,183.1 790.9,183.1 790.9,125.3 786.2,125.3 786.2,183.1 752.9,183.1 752.9,288.7 735.7,288.7 735.7,448.6 
				720.9,448.6 720.9,739.9 905.3,739.9 905.3,448.6 			"/>
		</g>
		<rect x="-25.6" y="715.8" class="st2" width="2039.6" height="48.5"/>
		<polygon class="st4" points="1175,752.5 1084.7,752.5 1119.8,571.6 1175,571.6 		"/>
		<g>
			<rect x="-98.8" y="759.5" class="st4" width="2141.5" height="76.5"/>
			<polygon class="st4" points="1101,417.8 1101,337.7 1072,337.7 1072,307.1 1056.4,307.1 1056.4,281.5 1051,281.5 1051,237.6 
				1049.6,237.6 1049.6,281.5 1044.1,281.5 1044.1,307.1 1028.6,307.1 1028.6,337.7 999.9,337.7 999.9,417.8 993.9,417.8 
				993.9,563.3 949.3,563.3 949.3,729.2 993.9,729.2 1038.5,729.2 1106.7,729.2 1106.7,417.8 			"/>
			<polygon class="st4" points="1267.6,509.9 1127.3,509.9 1127.3,512.4 1133.6,512.4 1133.6,749.8 1261.3,749.8 1261.3,512.4 
				1267.6,512.4 			"/>
			<rect x="503.1" y="569" class="st4" width="124.5" height="197.7"/>
			<rect x="270.3" y="670.3" class="st4" width="214" height="96.4"/>
			<rect x="385" y="454.9" class="st4" width="47" height="236.8"/>
			<rect x="395.4" y="391.7" class="st4" width="2.4" height="128.8"/>
			<rect x="403.4" y="401.5" class="st4" width="2.4" height="128.8"/>
			<rect x="388.7" y="440.2" class="st4" width="28.7" height="31.7"/>
			<rect x="476" y="604.4" class="st4" width="81.8" height="162.3"/>
			<rect x="647.7" y="432.6" class="st4" width="153.5" height="334.1"/>
			<rect x="662.8" y="421.1" class="st4" width="123.3" height="55.6"/>
			<rect x="635.8" y="439.6" class="st4" width="177.3" height="3.9"/>
			<rect x="619.9" y="598" class="st4" width="72.3" height="168.7"/>
			<rect x="101.9" y="591.6" class="st4" width="83" height="175.1"/>
			<g>
				<rect x="128.7" y="544" class="st4" width="165.4" height="222.7"/>
				<rect x="119.1" y="535.4" class="st4" width="179.3" height="8.5"/>
				<rect x="136.1" y="512.2" class="st4" width="72.7" height="45.2"/>
				<rect x="232.5" y="512.2" class="st4" width="12.2" height="27.5"/>
				<rect x="256.9" y="512.2" class="st4" width="13.4" height="27.5"/>
			</g>
			<rect x="56.7" y="699" class="st4" width="86.7" height="67.7"/>
			<rect x="24" y="670.3" class="st4" width="41" height="96.4"/>
			<rect x="-25.6" y="732.8" class="st4" width="70.1" height="33.9"/>
			<rect x="786.1" y="691.6" class="st4" width="864.1" height="75.1"/>
			<path class="st4" d="M1581.3,483.9c-5.4,0-9.9,4.2-10.3,9.5l-12.2-0.4c0-1.2,0.1-2.4,0.1-3.6c0-15.1-2.6-29.9-7.6-43.7l10.2-3.7
				c1.6,3.7,5.3,6.3,9.5,6.3c5.7,0,10.4-4.6,10.4-10.4c0-5.7-4.6-10.4-10.4-10.4s-10.4,4.6-10.4,10.4c0,1.1,0.2,2.1,0.5,3l-10.2,3.7
				c-5.8-15.5-14.6-29.9-26.2-42.3l8-7.4c1.9,1.8,4.4,2.9,7.2,2.9c5.7,0,10.4-4.6,10.4-10.4s-4.6-10.4-10.4-10.4
				c-5.7,0-10.4,4.6-10.4,10.4c0,2.5,0.9,4.9,2.4,6.7l-8,7.5c-0.8-0.9-1.7-1.7-2.5-2.6c-12-12-26.1-21.4-41.3-27.7l4.4-10.6
				c1,0.3,2,0.5,3.1,0.5c5.7,0,10.4-4.6,10.4-10.4c0-5.7-4.6-10.4-10.4-10.4c-5.7,0-10.4,4.6-10.4,10.4c0,4.2,2.5,7.9,6.2,9.5
				l-4.4,10.6c-13.7-5.5-28.3-8.7-43.4-9.2l0.5-14.6c0.1,0,0.2,0,0.3,0c5.7,0,10.4-4.6,10.4-10.4c0-5.7-4.6-10.4-10.4-10.4
				c-5.7,0-10.4,4.6-10.4,10.4c0,5.2,3.9,9.6,8.9,10.3l-0.5,14.6c-1.2,0-2.4-0.1-3.6-0.1c-14.5,0-28.7,2.4-42,7l-4.2-11.9
				c3.8-1.6,6.4-5.3,6.4-9.6c0-5.7-4.6-10.4-10.4-10.4s-10.4,4.6-10.4,10.4c0,5.7,4.6,10.4,10.4,10.4c1,0,1.9-0.1,2.9-0.4l4.2,11.9
				c-16.2,5.8-31.1,14.8-44,26.8l-7.6-8.1c1.7-1.8,2.7-4.3,2.7-7c0-5.7-4.6-10.4-10.4-10.4c-5.7,0-10.4,4.6-10.4,10.4
				c0,5.7,4.6,10.4,10.4,10.4c2.6,0,5-1,6.8-2.6l7.6,8.1c-0.9,0.8-1.7,1.7-2.6,2.5c-10.7,10.7-19.3,23-25.5,36.3l-9.6-4.5
				c0.3-1,0.5-2.2,0.5-3.3c0-5.7-4.6-10.4-10.4-10.4s-10.4,4.6-10.4,10.4c0,5.7,4.6,10.4,10.4,10.4c4.2,0,7.8-2.5,9.4-6l9.6,4.4
				c-6.9,15.1-10.8,31.4-11.4,48.4l-12.4-0.4c-0.2-5.6-4.7-10.1-10.4-10.1c-5.7,0-10.4,4.6-10.4,10.4c0,5.7,4.6,10.4,10.4,10.4
				c5.4,0,9.9-4.2,10.3-9.5l12.4,0.4c0,1.2-0.1,2.4-0.1,3.6c0,15.1,2.6,29.9,7.6,43.7l-10.2,3.7c-1.6-3.7-5.3-6.3-9.5-6.3
				c-5.7,0-10.4,4.6-10.4,10.4c0,5.7,4.6,10.4,10.4,10.4c5.7,0,10.4-4.6,10.4-10.4c0-1.1-0.2-2.1-0.5-3l10.2-3.7
				c5.8,15.5,14.6,29.9,26.2,42.3l-8,7.4c-1.9-1.8-4.4-2.9-7.2-2.9c-5.7,0-10.4,4.6-10.4,10.4c0,5.7,4.6,10.4,10.4,10.4
				c5.7,0,10.4-4.6,10.4-10.4c0-2.5-0.9-4.9-2.4-6.7l8-7.5c0.8,0.9,1.6,1.7,2.5,2.6c8.1,8.1,17.1,15,26.8,20.6l-62.6,115.4h-11.2
				v3.3h-5.5v6.6h286.1v-6.6h-5.5v-3.3H1557l-62.6-115.4c8.3-4.8,16.2-10.6,23.4-17.3l10.1,10.8c-2.2,1.9-3.6,4.7-3.6,7.8
				c0,5.7,4.6,10.4,10.4,10.4c5.7,0,10.4-4.6,10.4-10.4c0-5.7-4.6-10.4-10.4-10.4c-2.2,0-4.2,0.7-5.9,1.9l-10.2-10.9
				c0.9-0.8,1.7-1.7,2.6-2.5c10.7-10.7,19.3-23,25.5-36.3l11.3,5.2c-0.2,0.8-0.3,1.7-0.3,2.5c0,5.7,4.6,10.4,10.4,10.4
				c5.7,0,10.4-4.6,10.4-10.4c0-5.7-4.6-10.4-10.4-10.4c-4.4,0-8.2,2.8-9.7,6.7l-11.2-5.2c6.9-15.1,10.8-31.4,11.4-48.4l12.2,0.4
				c0.1,5.6,4.7,10.1,10.4,10.1c5.7,0,10.4-4.6,10.4-10.4C1591.6,488.5,1587,483.9,1581.3,483.9z M1555.3,489.4c0,1.2,0,2.3,0,3.5
				l-35.8-1.2c0-0.8,0-1.5,0-2.3c0-10.6-1.9-20.7-5.3-30.1l33.7-12.4C1552.8,460.3,1555.3,474.7,1555.3,489.4z M1517.7,491.6
				l-79.9-2.6c0-0.5-0.1-1-0.2-1.5l75-27.6c3.3,9.2,5.2,19.1,5.2,29.5C1517.8,490.1,1517.8,490.9,1517.7,491.6z M1344,487.1
				l79.9,2.6c0,0.5,0.1,1,0.2,1.5l-75,27.6c-3.3-9.2-5.2-19.1-5.2-29.5C1343.9,488.6,1343.9,487.9,1344,487.1z M1436.3,485.1
				l58.3-54.6c7.6,8.2,13.6,17.8,17.6,28.4l-75,27.6C1436.9,486,1436.6,485.5,1436.3,485.1z M1435.5,484.2c-0.5-0.4-1-0.8-1.5-1
				l30.4-74c11.2,4.7,21.2,11.7,29.4,20.4L1435.5,484.2z M1433,482.7c-0.4-0.1-0.9-0.2-1.3-0.3l2.6-79.9c10.2,0.4,20,2.6,29.1,6.2
				L1433,482.7z M1430.5,482.4c-0.5,0-1,0.1-1.4,0.2l-26.6-75.4c8.9-3.1,18.4-4.8,28.3-4.8c0.8,0,1.5,0,2.2,0L1430.5,482.4z
				 M1428,483c-0.5,0.2-1,0.5-1.5,0.9l-54.6-58.3c8.5-7.8,18.5-14,29.5-18L1428,483z M1425.7,484.7c-0.3,0.4-0.6,0.8-0.9,1.2
				l-72.6-33.5c4.6-9.8,11.1-18.7,18.8-26.1L1425.7,484.7z M1424.3,487c-0.2,0.5-0.3,1-0.4,1.6L1344,486c0.4-11.5,3.2-22.5,7.7-32.5
				L1424.3,487z M1424.5,492.3c0.2,0.4,0.4,0.8,0.7,1.1l-0.5,0.9l-57.6,54c-7.6-8.2-13.6-17.8-17.6-28.4L1424.5,492.3z M1423,497.6
				l-36.2,66.7c-7-4.1-13.4-9.2-18.9-15.1L1423,497.6z M1426.9,495.2c0.2,0.2,0.5,0.3,0.8,0.5l-30.4,74c-2.9-1.2-5.8-2.6-8.5-4.1
				L1426.9,495.2z M1428.7,496.1c0.4,0.1,0.9,0.2,1.3,0.3l-2.6,79.9c-10.2-0.4-20-2.6-29.1-6.2L1428.7,496.1z M1430.8,576.3
				c-0.8,0-1.5,0-2.2,0l2.6-79.9c0.5,0,1-0.1,1.4-0.2l26.6,75.4C1450.3,574.6,1440.8,576.3,1430.8,576.3z M1433.7,495.8
				c0.4-0.2,0.7-0.4,1.1-0.6l38.1,70.3c-4,2.2-8.2,4.2-12.6,5.7L1433.7,495.8z M1440.1,500.1l49.7,53c-4.5,4.2-9.5,7.9-14.9,11.1
				L1440.1,500.1z M1437.9,496.1l-1.4-2.6c0.1-0.2,0.3-0.4,0.4-0.6l72.6,33.5c-4.6,9.8-11.1,18.7-18.8,26.1L1437.9,496.1z
				 M1437.4,491.8c0.2-0.5,0.3-1,0.4-1.6l79.9,2.6c-0.4,11.5-3.2,22.5-7.7,32.5L1437.4,491.8z M1396.6,571.2l-13.6,33.2
				c-4.2-1.7-8.2-3.7-12.2-5.9l17.1-31.6C1390.8,568.5,1393.7,569.9,1396.6,571.2z M1397.7,571.6c9.2,3.7,19.2,6,29.7,6.4l-1.2,35.8
				c-14.7-0.5-28.9-3.6-42.2-9L1397.7,571.6z M1428.5,578c0.8,0,1.5,0,2.3,0c10.1,0,19.9-1.7,28.9-4.8l11.9,33.9
				c-13,4.5-26.7,6.8-40.9,6.8c-1.2,0-2.3,0-3.5,0L1428.5,578z M1460.9,572.8c4.5-1.6,8.8-3.6,12.9-5.9l17.1,31.6
				c-5.8,3.2-11.8,5.9-18.1,8.2L1460.9,572.8z M1547.5,445.8l-33.7,12.4c-4.1-10.8-10.2-20.6-17.9-29l26.2-24.5
				C1533.3,416.8,1541.9,430.7,1547.5,445.8z M1518.9,401.4c0.8,0.8,1.6,1.6,2.4,2.5l-26.2,24.5c-8.4-8.9-18.6-16-30.1-20.8
				l13.6-33.2C1493.5,380.6,1507.2,389.7,1518.9,401.4z M1477.6,374l-13.6,33.2c-9.2-3.7-19.2-6-29.7-6.4l1.2-35.8
				C1450.1,365.5,1464.4,368.6,1477.6,374z M1430.8,364.9c1.2,0,2.3,0,3.5,0l-1.2,35.8c-0.8,0-1.5,0-2.3,0
				c-10.1,0-19.9,1.7-28.9,4.8l-11.9-33.9C1402.9,367.2,1416.7,364.9,1430.8,364.9z M1388.9,372.1l11.9,33.9
				c-11.3,4.1-21.5,10.4-30.1,18.4l-24.5-26.2C1358.7,386.5,1373.2,377.7,1388.9,372.1z M1342.8,401.4c0.8-0.8,1.6-1.6,2.5-2.4
				l24.5,26.2c-7.9,7.6-14.5,16.6-19.2,26.6l-32.6-15.1C1324.1,423.7,1332.4,411.8,1342.8,401.4z M1317.5,437.7l32.6,15.1
				c-4.6,10.2-7.4,21.4-7.9,33.2l-35.8-1.2C1307,468.3,1310.8,452.4,1317.5,437.7z M1306.3,489.4c0-1.2,0-2.3,0-3.5l35.8,1.2
				c0,0.8,0,1.5,0,2.3c0,10.6,1.9,20.7,5.3,30.1l-33.7,12.4C1308.9,518.4,1306.3,504.1,1306.3,489.4z M1314.2,533l33.7-12.4
				c4.1,10.8,10.2,20.6,17.9,29l-26.2,24.5C1328.4,562,1319.8,548.1,1314.2,533z M1342.8,577.4c-0.8-0.8-1.6-1.6-2.4-2.5l26.2-24.5
				c5.7,6,12.2,11.2,19.4,15.4l-17.1,31.6C1359.4,592,1350.7,585.3,1342.8,577.4z M1554.5,715.8h-247.4l62-114.3
				c4.1,2.2,8.2,4.3,12.5,6l-4.4,10.6c-1-0.3-2-0.5-3.1-0.5c-5.7,0-10.4,4.6-10.4,10.4s4.6,10.4,10.4,10.4c5.7,0,10.4-4.6,10.4-10.4
				c0-4.2-2.5-7.9-6.2-9.5l4.4-10.6c13.7,5.5,28.3,8.7,43.4,9.2l-0.4,10.9c-5.6,0.1-10.1,4.7-10.1,10.4s4.6,10.4,10.4,10.4
				c5.7,0,10.4-4.6,10.4-10.4c0-5.4-4.2-9.9-9.5-10.3l0.4-10.9c1.2,0,2.4,0.1,3.6,0.1c14.5,0,28.7-2.4,42-7l3.7,10.6
				c-3.5,1.7-6,5.2-6,9.4c0,5.7,4.6,10.4,10.4,10.4c5.7,0,10.4-4.6,10.4-10.4c0-5.7-4.6-10.4-10.4-10.4c-1.2,0-2.3,0.2-3.3,0.5
				l-3.7-10.5c6.4-2.3,12.6-5.1,18.6-8.4L1554.5,715.8z M1492.9,597.4l-17.1-31.6c5.5-3.2,10.6-7.1,15.3-11.4l24.5,26.2
				C1508.6,587.1,1501,592.7,1492.9,597.4z M1518.9,577.4c-0.8,0.8-1.6,1.6-2.5,2.4l-24.5-26.2c7.9-7.6,14.5-16.6,19.2-26.6
				l32.6,15.1C1537.6,555.1,1529.3,567,1518.9,577.4z M1544.2,541.1l-32.6-15.1c4.6-10.2,7.4-21.4,7.9-33.2l35.8,1.2
				C1554.7,510.5,1550.9,526.4,1544.2,541.1z"/>
			<rect x="1606.3" y="571.2" class="st4" width="133.4" height="195.5"/>
			<rect x="1720.2" y="647.2" class="st4" width="133.4" height="118.4"/>
			<rect x="1202.8" y="629.8" class="st4" width="74.9" height="99.4"/>
			<rect x="1673" y="385.2" class="st4" width="94.4" height="381.4"/>
			<polygon class="st4" points="1922.8,766.7 1798.3,766.7 1798.3,544 1892.7,544 			"/>
			<rect x="1868.3" y="715.8" class="st4" width="109" height="50.8"/>
			<rect x="1743" y="305.6" class="st4" width="3.3" height="103.7"/>
			<rect x="1754" y="327.8" class="st4" width="3.3" height="103.7"/>
			<rect x="1733" y="342.1" class="st4" width="3.3" height="103.7"/>
			<rect x="1803.2" y="526" class="st4" width="44.5" height="35.1"/>
			<rect x="1808.1" y="513.4" class="st4" width="34.8" height="19.7"/>
			<rect x="1865.5" y="536.2" class="st4" width="8.5" height="14.2"/>
			<rect x="1877" y="523.3" class="st4" width="12.2" height="27.1"/>
		</g>
		<g>
			<g>
				<rect x="1202.4" y="471.3" class="st5" width="113.1" height="364.7"/>
				<rect x="1193.9" y="473.5" class="st5" width="130.1" height="3.7"/>
				<rect x="1197.4" y="524.7" class="st5" width="123" height="3.7"/>
				<rect x="1197.4" y="574.3" class="st5" width="123" height="3.7"/>
				<rect x="1197.4" y="623.9" class="st5" width="123" height="3.7"/>
				<rect x="1197.4" y="673.5" class="st5" width="123" height="3.7"/>
				<rect x="1197.4" y="723.1" class="st5" width="123" height="3.7"/>
				<rect x="1197.4" y="772.7" class="st5" width="123" height="3.7"/>
				<rect x="1189.6" y="463.4" class="st5" width="138.7" height="10.1"/>
				<rect x="1212.6" y="489.1" class="st6" width="11.8" height="29.1"/>
				<rect x="1238.9" y="489.1" class="st5" width="11.8" height="29.1"/>
				<rect x="1265.1" y="489.1" class="st5" width="11.8" height="29.1"/>
				<rect x="1291.4" y="489.1" class="st5" width="11.8" height="29.1"/>
				<rect x="1212.6" y="536.8" class="st5" width="11.8" height="29.1"/>
				<rect x="1238.9" y="536.8" class="st6" width="11.8" height="29.1"/>
				<rect x="1265.1" y="536.8" class="st5" width="11.8" height="29.1"/>
				<rect x="1291.4" y="536.8" class="st5" width="11.8" height="29.1"/>
				<rect x="1212.6" y="586.4" class="st5" width="11.8" height="29.1"/>
				<rect x="1238.9" y="586.4" class="st5" width="11.8" height="29.1"/>
				<rect x="1265.1" y="586.4" class="st5" width="11.8" height="29.1"/>
				<rect x="1291.4" y="586.4" class="st6" width="11.8" height="29.1"/>
				<rect x="1212.6" y="636" class="st5" width="11.8" height="29.1"/>
				<rect x="1238.9" y="636" class="st6" width="11.8" height="29.1"/>
				<rect x="1265.1" y="636" class="st6" width="11.8" height="29.1"/>
				<rect x="1291.4" y="636" class="st5" width="11.8" height="29.1"/>
				<rect x="1212.6" y="685.6" class="st6" width="11.8" height="29.1"/>
				<rect x="1238.9" y="685.6" class="st5" width="11.8" height="29.1"/>
				<rect x="1265.1" y="685.6" class="st5" width="11.8" height="29.1"/>
				<rect x="1291.4" y="685.6" class="st5" width="11.8" height="29.1"/>
				<rect x="1212.6" y="735.2" class="st5" width="11.8" height="29.1"/>
				<rect x="1238.9" y="735.2" class="st5" width="11.8" height="29.1"/>
				<rect x="1265.1" y="735.2" class="st6" width="11.8" height="29.1"/>
				<rect x="1291.4" y="735.2" class="st5" width="11.8" height="29.1"/>
				<rect x="1212.6" y="784.8" class="st5" width="11.8" height="29.1"/>
				<rect x="1238.9" y="784.8" class="st6" width="11.8" height="29.1"/>
				<rect x="1265.1" y="784.8" class="st5" width="11.8" height="29.1"/>
				<rect x="1291.4" y="784.8" class="st6" width="11.8" height="29.1"/>
				<rect x="1209.5" y="449.5" class="st5" width="38.5" height="18.9"/>
				<rect x="1206.9" y="448.9" class="st5" width="43.7" height="3.2"/>
			</g>
			<g>
				<polygon class="st5" points="1040.2,836 889.5,836 889.5,489.5 1040.2,452.6 				"/>
				<rect x="882.9" y="483.4" class="st5" width="13.2" height="352.6"/>
				<rect x="920.5" y="473.4" class="st5" width="13.2" height="362.6"/>
				<rect x="958.2" y="463.1" class="st5" width="13.2" height="372.9"/>
				<rect x="995.9" y="454.7" class="st5" width="13.2" height="381.3"/>
				<rect x="1033.6" y="445.8" class="st5" width="13.2" height="390.2"/>
				<rect x="899.5" y="513" class="st6" width="17.6" height="26.8"/>
				<rect x="937.2" y="513" class="st6" width="17.6" height="26.8"/>
				<rect x="974.9" y="513" class="st5" width="17.6" height="26.8"/>
				<rect x="1012.6" y="513" class="st6" width="17.6" height="26.8"/>
				<rect x="899.5" y="559.6" class="st5" width="17.6" height="26.8"/>
				<rect x="937.2" y="559.6" class="st5" width="17.6" height="26.8"/>
				<rect x="974.9" y="559.6" class="st6" width="17.6" height="26.8"/>
				<rect x="1012.6" y="559.6" class="st6" width="17.6" height="26.8"/>
				<rect x="899.5" y="606.2" class="st6" width="17.6" height="26.8"/>
				<rect x="937.2" y="606.2" class="st6" width="17.6" height="26.8"/>
				<rect x="974.9" y="606.2" class="st6" width="17.6" height="26.8"/>
				<rect x="1012.6" y="606.2" class="st5" width="17.6" height="26.8"/>
				<rect x="899.5" y="652.9" class="st6" width="17.6" height="26.8"/>
				<rect x="937.2" y="652.9" class="st5" width="17.6" height="26.8"/>
				<rect x="974.9" y="652.9" class="st6" width="17.6" height="26.8"/>
				<rect x="1012.6" y="652.9" class="st6" width="17.6" height="26.8"/>
				<rect x="899.5" y="699.5" class="st6" width="17.6" height="26.8"/>
				<rect x="937.2" y="699.5" class="st6" width="17.6" height="26.8"/>
				<rect x="974.9" y="699.5" class="st5" width="17.6" height="26.8"/>
				<rect x="1012.6" y="699.5" class="st6" width="17.6" height="26.8"/>
				<rect x="899.5" y="746.1" class="st5" width="17.6" height="26.8"/>
				<rect x="937.2" y="746.1" class="st5" width="17.6" height="26.8"/>
				<rect x="974.9" y="746.1" class="st6" width="17.6" height="26.8"/>
				<rect x="1012.6" y="746.1" class="st6" width="17.6" height="26.8"/>
				<rect x="899.5" y="792.8" class="st6" width="17.6" height="26.8"/>
				<rect x="937.2" y="792.8" class="st5" width="17.6" height="26.8"/>
				<rect x="974.9" y="792.8" class="st6" width="17.6" height="26.8"/>
				<rect x="1012.6" y="792.8" class="st5" width="17.6" height="26.8"/>
			</g>
			<polygon class="st5" points="459.5,506.1 459.5,509.7 455.9,509.7 455.9,519.9 519,519.9 519,836 415.5,836 415.5,536.4 
				415.5,519.9 415.5,509.7 411.8,509.7 411.8,506.1 			"/>
			<rect x="635.8" y="649.6" class="st5" width="88.6" height="186.4"/>
			<g>
				<rect x="249.5" y="606.9" class="st5" width="72.1" height="229.1"/>
				<rect x="307.2" y="654.7" class="st5" width="78.5" height="181.3"/>
				<rect x="275.4" y="597.7" class="st5" width="31.9" height="27.4"/>
				<rect x="312.6" y="651.7" class="st5" width="83.7" height="6.7"/>
			</g>
			<rect x="377.3" y="732.4" class="st5" width="88" height="103.6"/>
			<rect x="92.8" y="648.2" class="st5" width="71.6" height="187.8"/>
			<rect x="30.7" y="741.8" class="st5" width="94.2" height="94.2"/>
			<rect x="-25.6" y="801.7" class="st5" width="139.3" height="34.3"/>
			<rect x="164.4" y="766.7" class="st5" width="111" height="69.3"/>
			<rect x="489.9" y="806.1" class="st5" width="172.9" height="29.9"/>
			<rect x="796.4" y="806.1" class="st5" width="172.9" height="29.9"/>
			<polygon class="st5" points="656.1,718.5 590.4,718.5 562.6,821.1 656.1,821.1 			"/>
			<rect x="686.4" y="569.2" class="st5" width="1.8" height="113.8"/>
			<rect x="695.6" y="607.7" class="st5" width="2.4" height="67.2"/>
			<rect x="682.5" y="619.6" class="st5" width="33.2" height="33.2"/>
			<rect x="676.9" y="617" class="st5" width="44" height="3"/>
			<rect x="708.4" y="739.9" class="st5" width="107.4" height="96.1"/>
			<rect x="795.2" y="634.1" class="st5" width="69" height="185.5"/>
			<rect x="1064.7" y="668.9" class="st5" width="110.3" height="167.1"/>
			<rect x="1030.2" y="774.4" class="st5" width="125.7" height="61.6"/>
			<rect x="1168.9" y="814" class="st5" width="81.7" height="22"/>
			<rect x="1294.8" y="774.4" class="st5" width="132.9" height="61.6"/>
			<g>
				<rect x="1347.7" y="613.3" class="st5" width="165.4" height="222.7"/>
				<rect x="1343.5" y="604.8" class="st5" width="179.3" height="8.5"/>
				<rect x="1433.1" y="581.5" class="st5" width="72.7" height="45.2"/>
				<rect x="1397.2" y="581.5" class="st5" width="12.2" height="27.5"/>
				<rect x="1371.6" y="581.5" class="st5" width="13.4" height="27.5"/>
			</g>
			<g>
				<rect x="1626.7" y="510.7" class="st5" width="130.9" height="325.3"/>
				<rect x="1623.1" y="505.1" class="st5" width="138.3" height="9.2"/>
				<rect x="1631.1" y="493.4" class="st5" width="122.1" height="43.7"/>
				<rect x="1695.5" y="475.5" class="st5" width="48.4" height="47.7"/>
				<polygon class="st5" points="1715.9,488.9 1743.9,488.9 1743.9,463.8 1723.9,463.8 				"/>
				<rect x="1730" y="442.9" class="st5" width="2.7" height="56"/>
				<path class="st5" d="M1728.9,440c0,1.6,1.1,2.9,2.4,2.9s2.4-1.3,2.4-2.9s-1.1-2.9-2.4-2.9S1728.9,438.4,1728.9,440z"/>
			</g>
			<rect x="1739.8" y="701.7" class="st5" width="58.6" height="134.3"/>
			<rect x="1572.9" y="636.2" class="st5" width="66.8" height="199.8"/>
			<polygon class="st5" points="1606.3,836 1512.2,836 1512.2,729.2 1591.6,764.4 			"/>
			<rect x="1779.1" y="778" class="st5" width="143.7" height="58"/>
			<rect x="1869.7" y="604.4" class="st5" width="83.5" height="231.6"/>
			<rect x="1865.5" y="600.1" class="st5" width="91.6" height="7.6"/>
		</g>
	</g>
	<g>
		<g class="st7">
			<rect x="256.9" y="618.5" class="st8" width="5.5" height="5.5"/>
			<rect x="267.9" y="618.5" class="st8" width="5.5" height="5.5"/>
			<rect x="256.9" y="631.3" class="st8" width="5.5" height="5.5"/>
			<rect x="267.9" y="631.3" class="st8" width="5.5" height="5.5"/>
			<rect x="256.9" y="643.7" class="st8" width="5.5" height="5.5"/>
			<rect x="280" y="618.5" class="st8" width="5.5" height="5.5"/>
		</g>
		<rect x="656.1" y="454.7" class="st9" width="3.7" height="20.6"/>
		<rect x="668.9" y="454.7" class="st9" width="3.7" height="20.6"/>
		<rect x="681.7" y="454.7" class="st9" width="3.7" height="20.6"/>
		<rect x="694.5" y="454.7" class="st9" width="3.7" height="20.6"/>
		<rect x="707.4" y="454.7" class="st9" width="3.7" height="20.6"/>
		<rect x="720.2" y="454.7" class="st9" width="3.7" height="20.6"/>
		<rect x="733" y="454.7" class="st9" width="3.7" height="20.6"/>
		<rect x="745.8" y="454.7" class="st9" width="3.7" height="20.6"/>
		<rect x="758.6" y="454.7" class="st9" width="3.7" height="20.6"/>
		<rect x="771.5" y="454.7" class="st9" width="3.7" height="20.6"/>
		<rect x="784.3" y="454.7" class="st9" width="3.7" height="20.6"/>
		<rect x="656.1" y="483.4" class="st9" width="3.7" height="20.6"/>
		<rect x="668.9" y="483.4" class="st9" width="3.7" height="20.6"/>
		<rect x="681.7" y="483.4" class="st9" width="3.7" height="20.6"/>
		<rect x="694.5" y="483.4" class="st9" width="3.7" height="20.6"/>
		<rect x="707.4" y="483.4" class="st9" width="3.7" height="20.6"/>
		<rect x="720.2" y="483.4" class="st9" width="3.7" height="20.6"/>
		<rect x="733" y="483.4" class="st9" width="3.7" height="20.6"/>
		<rect x="745.8" y="483.4" class="st9" width="3.7" height="20.6"/>
		<rect x="758.6" y="483.4" class="st9" width="3.7" height="20.6"/>
		<rect x="771.5" y="483.4" class="st9" width="3.7" height="20.6"/>
		<rect x="784.3" y="483.4" class="st9" width="3.7" height="20.6"/>
		<rect x="656.1" y="512" class="st9" width="3.7" height="20.6"/>
		<rect x="668.9" y="512" class="st9" width="3.7" height="20.6"/>
		<rect x="681.7" y="512" class="st9" width="3.7" height="20.6"/>
		<rect x="694.5" y="512" class="st9" width="3.7" height="20.6"/>
		<rect x="707.4" y="512" class="st9" width="3.7" height="20.6"/>
		<rect x="720.2" y="512" class="st9" width="3.7" height="20.6"/>
		<rect x="733" y="512" class="st9" width="3.7" height="20.6"/>
		<rect x="745.8" y="512" class="st9" width="3.7" height="20.6"/>
		<rect x="758.6" y="512" class="st9" width="3.7" height="20.6"/>
		<rect x="771.5" y="512" class="st9" width="3.7" height="20.6"/>
		<rect x="784.3" y="512" class="st9" width="3.7" height="20.6"/>
		<rect x="694.5" y="540.7" class="st9" width="3.7" height="20.6"/>
		<rect x="707.4" y="540.7" class="st9" width="3.7" height="20.6"/>
		<rect x="720.2" y="540.7" class="st9" width="3.7" height="20.6"/>
		<rect x="733" y="540.7" class="st9" width="3.7" height="20.6"/>
		<rect x="745.8" y="540.7" class="st9" width="3.7" height="20.6"/>
		<rect x="758.6" y="540.7" class="st9" width="3.7" height="20.6"/>
		<rect x="771.5" y="540.7" class="st9" width="3.7" height="20.6"/>
		<rect x="784.3" y="540.7" class="st9" width="3.7" height="20.6"/>
		<rect x="707.4" y="571" class="st9" width="3.7" height="20.6"/>
		<rect x="720.2" y="571" class="st9" width="3.7" height="20.6"/>
		<rect x="733" y="571" class="st9" width="3.7" height="20.6"/>
		<rect x="745.8" y="571" class="st9" width="3.7" height="20.6"/>
		<rect x="758.6" y="571" class="st9" width="3.7" height="20.6"/>
		<rect x="771.5" y="571" class="st9" width="3.7" height="20.6"/>
		<rect x="784.3" y="571" class="st9" width="3.7" height="20.6"/>
		<rect x="903.9" y="505.8" class="st10" width="8.8" height="22.3"/>
		<rect x="903.9" y="548.5" class="st10" width="8.8" height="22.3"/>
		<rect x="903.9" y="591.1" class="st10" width="8.8" height="22.3"/>
		<rect x="903.9" y="633.7" class="st10" width="8.8" height="22.3"/>
		<rect x="903.9" y="673.9" class="st10" width="8.8" height="22.3"/>
		<rect x="903.9" y="716.6" class="st10" width="8.8" height="22.3"/>
		<rect x="941.6" y="505.8" class="st10" width="8.8" height="22.3"/>
		<rect x="941.6" y="548.5" class="st10" width="8.8" height="22.3"/>
		<rect x="941.6" y="591.1" class="st10" width="8.8" height="22.3"/>
		<rect x="941.6" y="633.7" class="st10" width="8.8" height="22.3"/>
		<rect x="941.6" y="673.9" class="st10" width="8.8" height="22.3"/>
		<rect x="941.6" y="716.6" class="st10" width="8.8" height="22.3"/>
		<rect x="979.3" y="505.8" class="st10" width="8.8" height="22.3"/>
		<rect x="979.3" y="548.5" class="st10" width="8.8" height="22.3"/>
		<rect x="979.3" y="591.1" class="st10" width="8.8" height="22.3"/>
		<rect x="979.3" y="633.7" class="st10" width="8.8" height="22.3"/>
		<rect x="979.3" y="673.9" class="st10" width="8.8" height="22.3"/>
		<rect x="979.3" y="716.6" class="st10" width="8.8" height="22.3"/>
		<rect x="1017" y="505.8" class="st10" width="8.8" height="22.3"/>
		<rect x="1017" y="548.5" class="st10" width="8.8" height="22.3"/>
		<rect x="1017" y="591.1" class="st10" width="8.8" height="22.3"/>
		<rect x="1017" y="633.7" class="st10" width="8.8" height="22.3"/>
		<rect x="1017" y="673.9" class="st10" width="8.8" height="22.3"/>
		<rect x="1017" y="716.6" class="st10" width="8.8" height="22.3"/>
		<rect x="762.4" y="195" class="st9" width="7.3" height="19.5"/>
		<rect x="780.4" y="195" class="st9" width="7.3" height="19.5"/>
		<rect x="798.4" y="195" class="st9" width="7.3" height="19.5"/>
		<rect x="816.5" y="195" class="st9" width="7.3" height="19.5"/>
		<rect x="762.4" y="227.5" class="st9" width="7.3" height="19.5"/>
		<rect x="780.4" y="227.5" class="st9" width="7.3" height="19.5"/>
		<rect x="798.4" y="227.5" class="st9" width="7.3" height="19.5"/>
		<rect x="816.5" y="227.5" class="st9" width="7.3" height="19.5"/>
		<rect x="762.4" y="259.9" class="st9" width="7.3" height="19.5"/>
		<rect x="780.4" y="259.9" class="st9" width="7.3" height="19.5"/>
		<rect x="837" y="195" class="st9" width="7.3" height="19.5"/>
		<rect x="275.4" y="392.6" class="st11" width="4.6" height="17.9"/>
		<rect x="291.8" y="392.6" class="st11" width="4.6" height="17.9"/>
		<rect x="311" y="392.6" class="st11" width="4.6" height="17.9"/>
		<rect x="327.4" y="392.6" class="st11" width="4.6" height="17.9"/>
		<rect x="238.9" y="392.6" class="st11" width="4.7" height="17.9"/>
		<rect x="255.3" y="392.6" class="st11" width="4.6" height="17.9"/>
		<rect x="275.4" y="423.7" class="st11" width="4.6" height="17.9"/>
		<rect x="291.8" y="423.7" class="st11" width="4.6" height="17.9"/>
		<rect x="311" y="423.7" class="st11" width="4.6" height="17.9"/>
		<rect x="327.4" y="423.7" class="st11" width="4.6" height="17.9"/>
		<rect x="238.9" y="423.7" class="st11" width="4.7" height="17.9"/>
		<rect x="255.3" y="423.7" class="st11" width="4.6" height="17.9"/>
		<rect x="275.4" y="454.7" class="st11" width="4.6" height="17.9"/>
		<rect x="291.8" y="454.7" class="st11" width="4.6" height="17.9"/>
		<rect x="311" y="454.7" class="st11" width="4.6" height="17.9"/>
		<rect x="327.4" y="454.7" class="st11" width="4.6" height="17.9"/>
		<rect x="238.9" y="454.7" class="st11" width="4.7" height="17.9"/>
		<rect x="255.3" y="454.7" class="st11" width="4.6" height="17.9"/>
		<rect x="1143.2" y="529.6" class="st9" width="7.2" height="27.7"/>
		<rect x="1165.3" y="529.6" class="st9" width="7.2" height="27.7"/>
		<rect x="1186" y="529.6" class="st9" width="7.2" height="27.7"/>
		<rect x="1639.7" y="535.4" class="st10" width="5.5" height="15.6"/>
		<rect x="1656.8" y="535.4" class="st10" width="5.5" height="15.6"/>
		<rect x="1639.7" y="535.4" class="st10" width="5.5" height="15.6"/>
		<rect x="1656.8" y="535.4" class="st10" width="5.5" height="15.6"/>
		<rect x="1673" y="535.4" class="st10" width="5.5" height="15.6"/>
		<rect x="1690.2" y="535.4" class="st10" width="5.5" height="15.6"/>
		<rect x="1639.7" y="563.4" class="st10" width="5.5" height="15.6"/>
		<rect x="1656.8" y="563.4" class="st10" width="5.5" height="15.6"/>
		<rect x="1639.7" y="563.4" class="st10" width="5.5" height="15.6"/>
		<rect x="1656.8" y="563.4" class="st10" width="5.5" height="15.6"/>
		<rect x="1673" y="563.4" class="st10" width="5.5" height="15.6"/>
		<rect x="1690.2" y="563.4" class="st10" width="5.5" height="15.6"/>
		<rect x="1639.7" y="593.1" class="st10" width="5.5" height="15.6"/>
		<rect x="1656.8" y="593.1" class="st10" width="5.5" height="15.6"/>
		<rect x="1639.7" y="593.1" class="st10" width="5.5" height="15.6"/>
		<rect x="1656.8" y="593.1" class="st10" width="5.5" height="15.6"/>
		<rect x="1673" y="593.1" class="st10" width="5.5" height="15.6"/>
		<rect x="1690.2" y="593.1" class="st10" width="5.5" height="15.6"/>
		<rect x="1708.9" y="535.4" class="st10" width="5.5" height="15.6"/>
		<rect x="1708.9" y="563.4" class="st10" width="5.5" height="15.6"/>
		<rect x="1726.1" y="535.4" class="st10" width="5.5" height="15.6"/>
		<rect x="1212.6" y="489.1" class="st10" width="5.9" height="24.3"/>
		<rect x="1241.8" y="489.1" class="st10" width="5.9" height="24.3"/>
		<rect x="1271" y="489.1" class="st10" width="5.9" height="24.3"/>
		<rect x="1300.3" y="489.1" class="st10" width="5.9" height="24.3"/>
		<rect x="1212.6" y="539.2" class="st10" width="5.9" height="24.3"/>
		<rect x="1241.8" y="539.2" class="st10" width="5.9" height="24.3"/>
		<rect x="1271" y="539.2" class="st10" width="5.9" height="24.3"/>
		<rect x="1300.3" y="539.2" class="st10" width="5.9" height="24.3"/>
		<rect x="1212.6" y="590.5" class="st10" width="5.9" height="24.3"/>
		<rect x="1241.8" y="590.5" class="st10" width="5.9" height="24.3"/>
		<rect x="1271" y="590.5" class="st10" width="5.9" height="24.3"/>
		<rect x="1300.3" y="590.5" class="st10" width="5.9" height="24.3"/>
		<rect x="1212.6" y="641.8" class="st10" width="5.9" height="24.3"/>
		<rect x="1241.8" y="641.8" class="st10" width="5.9" height="24.3"/>
		<rect x="1271" y="641.8" class="st10" width="5.9" height="24.3"/>
		<rect x="1300.3" y="641.8" class="st10" width="5.9" height="24.3"/>
		<rect x="1212.6" y="688.3" class="st10" width="5.9" height="24.3"/>
		<rect x="1241.8" y="688.3" class="st10" width="5.9" height="24.3"/>
		<rect x="1271" y="688.3" class="st10" width="5.9" height="24.3"/>
		<rect x="1212.6" y="740.3" class="st10" width="5.9" height="24.3"/>
		<rect x="1241.8" y="740.3" class="st10" width="5.9" height="24.3"/>
		<rect x="1271" y="740.3" class="st10" width="5.9" height="24.3"/>
		<rect x="1300.3" y="688.3" class="st10" width="5.9" height="24.3"/>
		<rect x="1877.1" y="617.7" class="st10" width="6" height="14"/>
		<rect x="1877.1" y="640.2" class="st10" width="6" height="14"/>
		<rect x="1892.5" y="617.7" class="st10" width="6" height="14"/>
	</g>
</g>
<g class="st12">
	<path class="st13" d="M1025.2,836H894.8c0,0,56-236,32.6-296C904,480,860,428,860,428h30.1l19.9,35.1V402l36,14v56l14-13.6l14,13.6
		v-56l36-14v61.1l19.9-35.1h30.1c0,0-44,52-67.4,112C969.2,600,1025.2,836,1025.2,836z"/>
	<path class="st14" d="M1176.5,402c0,59.1-47.9,107-107,107c-43.2,0-80.5-25.7-97.4-62.6c-3.2,0.4-6.4,0.6-9.6,0.6
		c-4.9,0-9.7-0.5-14.3-1.4C931.5,483,894,509,850.5,509c-59.1,0-107-47.9-107-107c0-52.6,38-96.4,88-105.3
		c-2.6-7.1-4.1-14.7-4.1-22.7c0-35.9,29.1-65,65-65c26.3,0,48.9,15.6,59.2,38c1.9-0.2,3.9-0.4,5.8-0.4c3,0,5.9,0.3,8.7,0.8
		c10.2-22.7,32.9-38.5,59.4-38.5c35.9,0,65,29.1,65,65c0,7.9-1.4,15.4-3.9,22.4C1137.6,304.5,1176.5,348.7,1176.5,402z"/>
</g>
<g class="st12">
	<path class="st13" d="M1633.2,836h-130.3c0,0,56-236,32.6-296s-67.4-112-67.4-112h30.1l19.9,35.1V402l36,14v56l14-13.6l14,13.6v-56
		l36-14v61.1L1638,428h30.1c0,0-44,52-67.4,112C1577.2,600,1633.2,836,1633.2,836z"/>
	<path class="st14" d="M1784.5,402c0,59.1-47.9,107-107,107c-43.2,0-80.5-25.7-97.4-62.6c-3.2,0.4-6.4,0.6-9.6,0.6
		c-4.9,0-9.7-0.5-14.3-1.4c-16.7,37.3-54.2,63.4-97.7,63.4c-59.1,0-107-47.9-107-107c0-52.6,38-96.4,88.1-105.3
		c-2.6-7.1-4.1-14.7-4.1-22.7c0-35.9,29.1-65,65-65c26.3,0,48.9,15.6,59.2,38c1.9-0.2,3.9-0.4,5.8-0.4c3,0,5.9,0.3,8.7,0.8
		c10.2-22.7,32.9-38.5,59.4-38.5c35.9,0,65,29.1,65,65c0,7.9-1.4,15.4-3.9,22.4C1745.6,304.5,1784.5,348.7,1784.5,402z"/>
</g>
<g class="st12">
	<path class="st13" d="M422.2,836H291.8c0,0,56-236,32.6-296S257,428,257,428h30.1l19.9,35.1V402l36,14v56l14-13.6l14,13.6v-56
		l36-14v61.1l19.9-35.1H457c0,0-44,52-67.4,112S422.2,836,422.2,836z"/>
	<path class="st14" d="M573.5,402c0,59.1-47.9,107-107,107c-43.2,0-80.5-25.7-97.4-62.6c-3.2,0.4-6.4,0.6-9.6,0.6
		c-4.9,0-9.7-0.5-14.3-1.4C328.5,483,291,509,247.5,509c-59.1,0-107-47.9-107-107c0-52.6,38-96.4,88-105.3
		c-2.6-7.1-4.1-14.7-4.1-22.7c0-35.9,29.1-65,65-65c26.3,0,48.9,15.6,59.2,38c1.9-0.2,3.9-0.4,5.8-0.4c3,0,5.9,0.3,8.7,0.8
		c10.2-22.7,32.9-38.5,59.4-38.5c35.9,0,65,29.1,65,65c0,7.9-1.4,15.4-3.9,22.4C534.6,304.5,573.5,348.7,573.5,402z"/>
</g>
<g>
	<g>
		<line class="st15" x1="289" y1="760" x2="1631" y2="760"/>
		<line class="st15" x1="289" y1="798" x2="1631" y2="798"/>
	</g>
	<g>
		<line class="st15" x1="320" y1="836" x2="320" y2="729"/>
		<line class="st15" x1="400" y1="836" x2="400" y2="729"/>
		<line class="st15" x1="480" y1="836" x2="480" y2="729"/>
		<line class="st15" x1="560" y1="836" x2="560" y2="729"/>
		<line class="st15" x1="640" y1="836" x2="640" y2="729"/>
		<line class="st15" x1="720" y1="836" x2="720" y2="729"/>
		<line class="st15" x1="800" y1="836" x2="800" y2="729"/>
		<line class="st15" x1="880" y1="836" x2="880" y2="729"/>
		<line class="st15" x1="960" y1="836" x2="960" y2="729"/>
		<line class="st15" x1="1040" y1="836" x2="1040" y2="729"/>
		<line class="st15" x1="1120" y1="836" x2="1120" y2="729"/>
		<line class="st15" x1="1200" y1="836" x2="1200" y2="729"/>
		<line class="st15" x1="1280" y1="836" x2="1280" y2="729"/>
		<line class="st15" x1="1360" y1="836" x2="1360" y2="729"/>
		<line class="st15" x1="1440" y1="836" x2="1440" y2="729"/>
		<line class="st15" x1="1520" y1="836" x2="1520" y2="729"/>
		<line class="st15" x1="1600" y1="836" x2="1600" y2="729"/>
	</g>
</g>
<g>
	<rect y="836" class="st16" width="1920" height="244"/>
</g>
<g>
	<path class="st17" d="M76,836H0v-76c11.2,0,21.8,2.4,31.3,6.7C57.7,778.7,76,805.2,76,836z"/>
	<path class="st17" d="M276,836H124c0-28.9,16.2-54.1,40-66.9c10.7-5.8,23-9.1,36-9.1C242,760,276,794,276,836z"/>
	<path class="st17" d="M173,805c0,11-2.4,21.5-6.6,31H27.6c-4.2-9.5-6.6-20-6.6-31c0-14,3.8-27,10.3-38.3C44.5,744.2,69,729,97,729
		c29,0,54.2,16.2,67,40.1C169.7,779.8,173,792,173,805z"/>
</g>
<g>
	<path class="st17" d="M1844,836h76v-76c-11.2,0-21.8,2.4-31.3,6.7C1862.3,778.7,1844,805.2,1844,836z"/>
	<path class="st17" d="M1644,836h152c0-28.9-16.2-54.1-40-66.9c-10.7-5.8-23-9.1-36-9.1C1678,760,1644,794,1644,836z"/>
	<path class="st17" d="M1747,805c0,11,2.4,21.5,6.6,31h138.8c4.2-9.5,6.6-20,6.6-31c0-14-3.8-27-10.3-38.3
		c-13.2-22.6-37.6-37.7-65.7-37.7c-29,0-54.2,16.2-67,40.1C1750.3,779.8,1747,792,1747,805z"/>
</g>
</svg>
